<svg  xmlns="http://www.w3.org/2000/svg">
<symbol id="work" width="18" height="17" viewBox="0 0 18 17" >
    <path d="M15.6667 4H12.3333V2.33333C12.3333 1.40833 11.5917 0.666664 10.6667 0.666664H7.33334C6.40834 0.666664 5.66667 1.40833 5.66667 2.33333V4H2.33334C1.40834 4 0.675005 4.74166 0.675005 5.66666L0.666672 14.8333C0.666672 15.7583 1.40834 16.5 2.33334 16.5H15.6667C16.5917 16.5 17.3333 15.7583 17.3333 14.8333V5.66666C17.3333 4.74166 16.5917 4 15.6667 4ZM10.6667 4H7.33334V2.33333H10.6667V4Z" />
</symbol> 

<symbol width="20" height="20" viewBox="0 0 20 20" id="tool" >
<path d="M18.9167 15.8333L11.3333 8.25C12.0833 6.33333 11.6667 4.08333 10.0833 2.5C8.41667 0.833333 5.91667 0.5 3.91667 1.41667L7.5 5L5 7.5L1.33333 3.91667C0.333334 5.91667 0.75 8.41667 2.41667 10.0833C4 11.6667 6.25 12.0833 8.16667 11.3333L15.75 18.9167C16.0833 19.25 16.5833 19.25 16.9167 18.9167L18.8333 17C19.25 16.6667 19.25 16.0833 18.9167 15.8333Z" />
</symbol>

<symbol width="20" height="20" viewBox="0 0 20 20" id="material" >
<g clip-path="url(#clip0_257_1645)">
<path d="M10 1.66667L5.41667 9.16667H14.5833L10 1.66667Z" />
<path d="M14.5833 18.3333C16.6544 18.3333 18.3333 16.6544 18.3333 14.5833C18.3333 12.5123 16.6544 10.8333 14.5833 10.8333C12.5123 10.8333 10.8333 12.5123 10.8333 14.5833C10.8333 16.6544 12.5123 18.3333 14.5833 18.3333Z" />
<path d="M2.5 11.25H9.16667V17.9167H2.5V11.25Z" />
</g>
</symbol>



<symbol id="energy" width="20" height="20" viewBox="0 0 20 20" >
<path d="M2.5 15.8333H17.5V17.5H2.5V15.8333ZM5 13.3333C5.91667 13.3333 6.66667 12.5833 6.66667 11.6667C6.66667 11.25 6.5 10.8333 6.25 10.5833L7.33333 8.33333H7.5C7.91667 8.33333 8.33333 8.16667 8.58333 7.91667L10.8333 9.08333V9.16667C10.8333 10.0833 11.5833 10.8333 12.5 10.8333C13.4167 10.8333 14.1667 10.0833 14.1667 9.16667C14.1667 8.75 14 8.41667 13.75 8.08333L14.8333 5.83333H15C15.9167 5.83333 16.6667 5.08333 16.6667 4.16667C16.6667 3.25 15.9167 2.5 15 2.5C14.0833 2.5 13.3333 3.25 13.3333 4.16667C13.3333 4.58333 13.5 5 13.75 5.25L12.6667 7.5H12.5C12.0833 7.5 11.6667 7.66667 11.4167 7.91667L9.16667 6.83333V6.66667C9.16667 5.75 8.41667 5 7.5 5C6.58333 5 5.83333 5.75 5.83333 6.66667C5.83333 7.08333 6 7.5 6.25 7.75L5.16667 10H5C4.08333 10 3.33333 10.75 3.33333 11.6667C3.33333 12.5833 4.08333 13.3333 5 13.3333Z" />
</symbol>



<symbol width="20" height="20" viewBox="0 0 20 20"  id="simulation">
<path d="M9.57301 2.06597C9.85166 1.98322 10.1484 1.98322 10.427 2.06597L13.285 2.91597C13.4915 2.97735 13.6726 3.10376 13.8014 3.27637C13.9302 3.44898 13.9999 3.65858 14 3.87397V8.12797C13.9999 8.34336 13.9302 8.55295 13.8014 8.72556C13.6726 8.89818 13.4915 9.02458 13.285 9.08597L10.493 9.91597C10.4977 9.94372 10.5 9.97182 10.5 9.99997V11H12C12.5304 11 13.0391 11.2107 13.4142 11.5858C13.7893 11.9608 14 12.4695 14 13V13.05C14.607 13.1739 15.1464 13.5188 15.5136 14.0178C15.8808 14.5168 16.0496 15.1343 15.9873 15.7507C15.9251 16.3671 15.6362 16.9385 15.1766 17.3539C14.717 17.7694 14.1195 17.9995 13.5 17.9995C12.8805 17.9995 12.283 17.7694 11.8234 17.3539C11.3639 16.9385 11.0749 16.3671 11.0127 15.7507C10.9504 15.1343 11.1192 14.5168 11.4864 14.0178C11.8536 13.5188 12.393 13.1739 13 13.05V13C13 12.7348 12.8946 12.4804 12.7071 12.2929C12.5196 12.1053 12.2652 12 12 12H8.00001C7.73479 12 7.48044 12.1053 7.2929 12.2929C7.10536 12.4804 7.00001 12.7348 7.00001 13V13.05C7.60703 13.1739 8.14642 13.5188 8.5136 14.0178C8.88079 14.5168 9.04961 15.1343 8.98735 15.7507C8.92508 16.3671 8.63615 16.9385 8.17658 17.3539C7.71701 17.7694 7.11954 17.9995 6.50001 17.9995C5.88047 17.9995 5.283 17.7694 4.82343 17.3539C4.36386 16.9385 4.07493 16.3671 4.01267 15.7507C3.9504 15.1343 4.11922 14.5168 4.48641 14.0178C4.85359 13.5188 5.39298 13.1739 6.00001 13.05V13C6.00001 12.4695 6.21072 11.9608 6.58579 11.5858C6.96086 11.2107 7.46957 11 8.00001 11H9.50001V9.99997C9.50001 9.96997 9.50201 9.94297 9.50701 9.91497L6.71501 9.08497C6.50871 9.02363 6.32771 8.89738 6.1989 8.72496C6.07009 8.55255 6.00033 8.34318 6.00001 8.12797V3.87397C5.9999 3.65841 6.06946 3.44858 6.1983 3.27577C6.32715 3.10296 6.50839 2.9764 6.71501 2.91497L9.57301 2.06597ZM8.65801 4.52597C8.53203 4.48406 8.39456 4.49392 8.27585 4.55337C8.15714 4.61282 8.06691 4.71699 8.02501 4.84297C7.9831 4.96894 7.99296 5.10641 8.05241 5.22512C8.11186 5.34383 8.21603 5.43406 8.34201 5.47597L9.50001 5.85997V6.99997C9.50001 7.13257 9.55268 7.25975 9.64645 7.35352C9.74022 7.44729 9.8674 7.49997 10 7.49997C10.1326 7.49997 10.2598 7.44729 10.3536 7.35352C10.4473 7.25975 10.5 7.13257 10.5 6.99997V5.85997L11.658 5.47397C11.7226 5.45513 11.7827 5.42347 11.8347 5.38086C11.8868 5.33826 11.9297 5.2856 11.9609 5.22602C11.9921 5.16644 12.011 5.10118 12.0164 5.03414C12.0218 4.9671 12.0136 4.89966 11.9923 4.83585C11.9711 4.77205 11.9372 4.71319 11.8926 4.6628C11.8481 4.61241 11.7938 4.57152 11.7331 4.54259C11.6724 4.51366 11.6064 4.49727 11.5392 4.49442C11.472 4.49156 11.405 4.50229 11.342 4.52597L10 4.97397L8.65801 4.52697V4.52597Z" />
</symbol>




<symbol id="arrow" width="14" height="12" viewBox="0 0 14 12" fill="none" xmlns="http://www.w3.org/2000/svg">
<path d="M12.6 0L14 1.4L9.425 6L14 10.6L12.6 12L6.6 6L12.6 0ZM6 0L7.4 1.4L2.825 6L7.4 10.6L6 12L0 6L6 0Z" fill="white"/>
</symbol>

<symbol id="search" width="20" height="20" fill='none' viewBox="0 0 20 20" >
<g clip-path="url(#clip0_311_43)">
<path d="M8.75 16.25C12.8921 16.25 16.25 12.8921 16.25 8.75C16.25 4.60786 12.8921 1.25 8.75 1.25C4.60786 1.25 1.25 4.60786 1.25 8.75C1.25 12.8921 4.60786 16.25 8.75 16.25Z" stroke="#CDCDCD" stroke-width="2" stroke-linecap="round" stroke-linejoin="round"/>
<path d="M14.375 14.375L18.75 18.75" stroke="#CDCDCD" stroke-width="2" stroke-linecap="round" stroke-linejoin="round"/>
</g>
<defs>
<clipPath id="clip0_311_43">
<rect width="20" height="20" fill="white"/>
</clipPath>
</defs>
</symbol>



</svg>
