<svg>
<symbol id='big' viewBox="0 0 142 29" fill="none" xmlns="http://www.w3.org/2000/svg">
<path d="M18 28L16.32 21.84H7.32L5.68 28H0.56L8.36 0.479999H15.44L23.24 28H18ZM11.92 5.32H11.72L8.48 17.44H15.12L11.92 5.32ZM40.4691 28L37.0291 17.96H31.7491V28H26.6691V0.479999H37.7091C39.8424 0.479999 41.4557 0.826665 42.5491 1.52C43.6691 2.18667 44.4157 3.13333 44.7891 4.36C45.1624 5.58667 45.3491 7.2 45.3491 9.2C45.3491 11.0667 45.1091 12.7067 44.6291 14.12C44.1757 15.5067 43.2691 16.5067 41.9091 17.12L45.8691 28H40.4691ZM36.0291 13.56C37.3091 13.56 38.2424 13.44 38.8291 13.2C39.4157 12.96 39.7891 12.5467 39.9491 11.96C40.1357 11.3733 40.2291 10.4533 40.2291 9.2C40.2291 7.92 40.1357 7 39.9491 6.44C39.7891 5.88 39.4291 5.48 38.8691 5.24C38.3091 5 37.3757 4.88 36.0691 4.88H31.7491V13.56H36.0291ZM64.0238 28L60.5838 17.96H55.3038V28H50.2238V0.479999H61.2638C63.3971 0.479999 65.0104 0.826665 66.1038 1.52C67.2238 2.18667 67.9704 3.13333 68.3438 4.36C68.7171 5.58667 68.9038 7.2 68.9038 9.2C68.9038 11.0667 68.6638 12.7067 68.1838 14.12C67.7304 15.5067 66.8238 16.5067 65.4638 17.12L69.4238 28H64.0238ZM59.5838 13.56C60.8638 13.56 61.7971 13.44 62.3838 13.2C62.9704 12.96 63.3438 12.5467 63.5038 11.96C63.6904 11.3733 63.7838 10.4533 63.7838 9.2C63.7838 7.92 63.6904 7 63.5038 6.44C63.3438 5.88 62.9838 5.48 62.4238 5.24C61.8638 5 60.9304 4.88 59.6238 4.88H55.3038V13.56H59.5838ZM78.3784 28V5.04H71.5384V0.479999H90.2984V5.04H83.4584V28H78.3784ZM101.938 28.32C100.551 28.32 99.0708 28.2533 97.4975 28.12C95.9242 28.0133 94.5375 27.8667 93.3375 27.68V23.48C96.3242 23.7733 98.6975 23.92 100.458 23.92C101.658 23.92 102.591 23.8533 103.258 23.72C103.924 23.5867 104.418 23.3733 104.738 23.08C105.058 22.8133 105.258 22.4667 105.338 22.04C105.418 21.6133 105.458 21 105.458 20.2C105.458 19.2133 105.391 18.5067 105.258 18.08C105.151 17.6533 104.924 17.3467 104.578 17.16C104.231 16.9467 103.644 16.7733 102.818 16.64L97.7375 15.92C95.8175 15.68 94.4975 14.9467 93.7775 13.72C93.0575 12.4667 92.6975 10.6667 92.6975 8.32C92.6975 6.08 93.0575 4.37333 93.7775 3.2C94.5242 2 95.5375 1.2 96.8175 0.8C98.1242 0.373332 99.7775 0.159998 101.778 0.159998C103.138 0.159998 104.511 0.239998 105.898 0.399998C107.284 0.533331 108.444 0.706664 109.378 0.919998V5.04C107.458 4.72 105.338 4.56 103.018 4.56C101.844 4.56 100.911 4.61333 100.218 4.72C99.5508 4.82667 99.0442 5 98.6975 5.24C98.3242 5.48 98.0842 5.81333 97.9775 6.24C97.8708 6.64 97.8175 7.25333 97.8175 8.08C97.8175 8.98667 97.8708 9.64 97.9775 10.04C98.0842 10.44 98.2975 10.72 98.6175 10.88C98.9375 11.04 99.4842 11.1733 100.258 11.28L105.378 11.96C106.498 12.12 107.418 12.4267 108.138 12.88C108.884 13.3067 109.471 14.0133 109.898 15C110.351 16.12 110.578 17.6933 110.578 19.72C110.578 22.1467 110.231 23.9867 109.538 25.24C108.871 26.4933 107.924 27.32 106.698 27.72C105.498 28.12 103.911 28.32 101.938 28.32ZM136.583 28V7.88H136.383L130.383 28H126.223L120.263 7.88H120.063V28H115.223V0.479999H122.623L128.303 19.68H128.543L134.223 0.479999H141.503V28H136.583Z" fill="white"/>
</symbol>

<svg width="142" height="29" viewBox="0 0 142 29" fill="none" xmlns="http://www.w3.org/2000/svg">
<path d="M18 28L16.32 21.84H7.32L5.68 28H0.56L8.36 0.479999H15.44L23.24 28H18ZM11.92 5.32H11.72L8.48 17.44H15.12L11.92 5.32ZM40.4691 28L37.0291 17.96H31.7491V28H26.6691V0.479999H37.7091C39.8424 0.479999 41.4557 0.826665 42.5491 1.52C43.6691 2.18667 44.4157 3.13333 44.7891 4.36C45.1624 5.58667 45.3491 7.2 45.3491 9.2C45.3491 11.0667 45.1091 12.7067 44.6291 14.12C44.1757 15.5067 43.2691 16.5067 41.9091 17.12L45.8691 28H40.4691ZM36.0291 13.56C37.3091 13.56 38.2424 13.44 38.8291 13.2C39.4157 12.96 39.7891 12.5467 39.9491 11.96C40.1357 11.3733 40.2291 10.4533 40.2291 9.2C40.2291 7.92 40.1357 7 39.9491 6.44C39.7891 5.88 39.4291 5.48 38.8691 5.24C38.3091 5 37.3757 4.88 36.0691 4.88H31.7491V13.56H36.0291ZM64.0238 28L60.5838 17.96H55.3038V28H50.2238V0.479999H61.2638C63.3971 0.479999 65.0104 0.826665 66.1038 1.52C67.2238 2.18667 67.9704 3.13333 68.3438 4.36C68.7171 5.58667 68.9038 7.2 68.9038 9.2C68.9038 11.0667 68.6638 12.7067 68.1838 14.12C67.7304 15.5067 66.8238 16.5067 65.4638 17.12L69.4238 28H64.0238ZM59.5838 13.56C60.8638 13.56 61.7971 13.44 62.3838 13.2C62.9704 12.96 63.3438 12.5467 63.5038 11.96C63.6904 11.3733 63.7838 10.4533 63.7838 9.2C63.7838 7.92 63.6904 7 63.5038 6.44C63.3438 5.88 62.9838 5.48 62.4238 5.24C61.8638 5 60.9304 4.88 59.6238 4.88H55.3038V13.56H59.5838ZM78.3784 28V5.04H71.5384V0.479999H90.2984V5.04H83.4584V28H78.3784ZM101.938 28.32C100.551 28.32 99.0708 28.2533 97.4975 28.12C95.9242 28.0133 94.5375 27.8667 93.3375 27.68V23.48C96.3242 23.7733 98.6975 23.92 100.458 23.92C101.658 23.92 102.591 23.8533 103.258 23.72C103.924 23.5867 104.418 23.3733 104.738 23.08C105.058 22.8133 105.258 22.4667 105.338 22.04C105.418 21.6133 105.458 21 105.458 20.2C105.458 19.2133 105.391 18.5067 105.258 18.08C105.151 17.6533 104.924 17.3467 104.578 17.16C104.231 16.9467 103.644 16.7733 102.818 16.64L97.7375 15.92C95.8175 15.68 94.4975 14.9467 93.7775 13.72C93.0575 12.4667 92.6975 10.6667 92.6975 8.32C92.6975 6.08 93.0575 4.37333 93.7775 3.2C94.5242 2 95.5375 1.2 96.8175 0.8C98.1242 0.373332 99.7775 0.159998 101.778 0.159998C103.138 0.159998 104.511 0.239998 105.898 0.399998C107.284 0.533331 108.444 0.706664 109.378 0.919998V5.04C107.458 4.72 105.338 4.56 103.018 4.56C101.844 4.56 100.911 4.61333 100.218 4.72C99.5508 4.82667 99.0442 5 98.6975 5.24C98.3242 5.48 98.0842 5.81333 97.9775 6.24C97.8708 6.64 97.8175 7.25333 97.8175 8.08C97.8175 8.98667 97.8708 9.64 97.9775 10.04C98.0842 10.44 98.2975 10.72 98.6175 10.88C98.9375 11.04 99.4842 11.1733 100.258 11.28L105.378 11.96C106.498 12.12 107.418 12.4267 108.138 12.88C108.884 13.3067 109.471 14.0133 109.898 15C110.351 16.12 110.578 17.6933 110.578 19.72C110.578 22.1467 110.231 23.9867 109.538 25.24C108.871 26.4933 107.924 27.32 106.698 27.72C105.498 28.12 103.911 28.32 101.938 28.32ZM136.583 28V7.88H136.383L130.383 28H126.223L120.263 7.88H120.063V28H115.223V0.479999H122.623L128.303 19.68H128.543L134.223 0.479999H141.503V28H136.583Z" fill="white"/>
</svg>


<symbol id="small" viewBox="0 0 31 45" fill="none" xmlns="http://www.w3.org/2000/svg">
<path d="M23.488 45L21.376 35.016H10.112L8.064 45H0.704L10.56 0.967999H21.12L30.976 45H23.488ZM15.936 8.2H15.552L11.456 28.488H19.968L15.936 8.2Z" fill="#0072BC"/>
</symbol>

<symbol id='triqbriq' width="20" height="20" viewBox="0 0 20 20" xmlns="http://www.w3.org/2000/svg">
<path d="M1 1H7V7H1V1ZM7 1H13V7H7V1ZM7 7H13V13H7V7ZM7 13H13V19H7V13ZM13 1H19V7H13V1Z" fill="none" stroke="#0072BC" stroke-width="2" stroke-linecap="round" stroke-linejoin="round"/>
</symbol>

<symbol id='triqbriqText' viewBox="0 0 84 16"  xmlns="http://www.w3.org/2000/svg">
<path d="M3.708 13V3.136H0.324V0.616H10.242V3.136H6.84V13H3.708ZM11.8425 13V0.616H17.9805C18.7845 0.616 19.4325 0.705999 19.9245 0.885999C20.4285 1.054 20.8065 1.312 21.0585 1.66C21.3225 1.996 21.4965 2.416 21.5805 2.92C21.6765 3.412 21.7245 3.976 21.7245 4.612C21.7245 5.08 21.6885 5.554 21.6165 6.034C21.5445 6.502 21.3885 6.934 21.1485 7.33C20.9205 7.714 20.5665 8.008 20.0865 8.212L21.9585 13H18.7005L16.9545 8.05L17.7465 8.482C17.6385 8.542 17.5245 8.578 17.4045 8.59C17.2965 8.602 17.1585 8.608 16.9905 8.608H14.9745V13H11.8425ZM14.9745 6.286H16.7745C17.1825 6.286 17.5065 6.268 17.7465 6.232C17.9985 6.184 18.1845 6.1 18.3045 5.98C18.4245 5.86 18.5025 5.692 18.5385 5.476C18.5745 5.26 18.5925 4.984 18.5925 4.648C18.5925 4.3 18.5745 4.018 18.5385 3.802C18.5145 3.586 18.4425 3.424 18.3225 3.316C18.2145 3.196 18.0345 3.112 17.7825 3.064C17.5425 3.016 17.2065 2.992 16.7745 2.992H14.9745V6.286ZM23.9362 13V0.616H27.0682V13H23.9362ZM37.3171 15.07L35.8231 12.856L38.5771 12.064L40.6471 14.98V15.07H37.3171ZM34.6891 13.144C33.6451 13.144 32.7871 13.084 32.1151 12.964C31.4551 12.832 30.9391 12.628 30.5671 12.352C30.1951 12.064 29.9191 11.68 29.7391 11.2C29.5711 10.708 29.4631 10.102 29.4151 9.382C29.3791 8.662 29.3611 7.804 29.3611 6.808C29.3611 5.812 29.3791 4.954 29.4151 4.234C29.4631 3.514 29.5711 2.914 29.7391 2.434C29.9191 1.942 30.1951 1.558 30.5671 1.282C30.9391 0.994 31.4551 0.789999 32.1151 0.669999C32.7871 0.537999 33.6451 0.471999 34.6891 0.471999C35.7211 0.471999 36.5671 0.537999 37.2271 0.669999C37.8991 0.789999 38.4271 0.994 38.8111 1.282C39.1951 1.558 39.4711 1.942 39.6391 2.434C39.8071 2.914 39.9151 3.514 39.9631 4.234C40.0111 4.954 40.0351 5.812 40.0351 6.808C40.0351 7.804 40.0111 8.662 39.9631 9.382C39.9151 10.102 39.8071 10.708 39.6391 11.2C39.4711 11.68 39.1951 12.064 38.8111 12.352C38.4271 12.628 37.8991 12.832 37.2271 12.964C36.5671 13.084 35.7211 13.144 34.6891 13.144ZM34.6891 10.732C35.1211 10.732 35.4691 10.72 35.7331 10.696C36.0091 10.66 36.2251 10.582 36.3811 10.462C36.5371 10.33 36.6511 10.126 36.7231 9.85C36.7951 9.574 36.8371 9.19 36.8491 8.698C36.8731 8.206 36.8851 7.576 36.8851 6.808C36.8851 6.04 36.8731 5.41 36.8491 4.918C36.8371 4.426 36.7951 4.042 36.7231 3.766C36.6511 3.49 36.5371 3.292 36.3811 3.172C36.2251 3.04 36.0091 2.962 35.7331 2.938C35.4691 2.902 35.1211 2.884 34.6891 2.884C34.2691 2.884 33.9211 2.902 33.6451 2.938C33.3691 2.962 33.1531 3.04 32.9971 3.172C32.8411 3.292 32.7271 3.49 32.6551 3.766C32.5831 4.042 32.5351 4.426 32.5111 4.918C32.4991 5.41 32.4931 6.04 32.4931 6.808C32.4931 7.576 32.4991 8.206 32.5111 8.698C32.5351 9.19 32.5831 9.574 32.6551 9.85C32.7271 10.126 32.8411 10.33 32.9971 10.462C33.1531 10.582 33.3691 10.66 33.6451 10.696C33.9211 10.72 34.2691 10.732 34.6891 10.732ZM42.3053 13V0.616H48.5513C49.3433 0.616 49.9973 0.73 50.5133 0.957999C51.0413 1.186 51.4313 1.534 51.6833 2.002C51.9473 2.458 52.0793 3.034 52.0793 3.73C52.0793 4.306 52.0013 4.792 51.8453 5.188C51.6893 5.584 51.4493 5.902 51.1253 6.142C50.8133 6.37 50.4113 6.538 49.9193 6.646V6.718C50.4473 6.826 50.8733 6.994 51.1973 7.222C51.5333 7.45 51.7793 7.768 51.9353 8.176C52.0913 8.572 52.1693 9.082 52.1693 9.706C52.1693 10.222 52.1033 10.684 51.9713 11.092C51.8513 11.5 51.6473 11.848 51.3593 12.136C51.0833 12.412 50.7113 12.628 50.2433 12.784C49.7873 12.928 49.2233 13 48.5513 13H42.3053ZM45.4193 10.66H47.4533C47.8853 10.66 48.2153 10.624 48.4433 10.552C48.6713 10.468 48.8273 10.324 48.9113 10.12C48.9953 9.916 49.0373 9.628 49.0373 9.256C49.0373 8.872 48.9953 8.578 48.9113 8.374C48.8273 8.17 48.6653 8.032 48.4253 7.96C48.1973 7.876 47.8733 7.834 47.4533 7.834H45.4193V10.66ZM45.4193 5.656H47.3993C47.8073 5.656 48.1253 5.62 48.3533 5.548C48.5813 5.464 48.7373 5.326 48.8213 5.134C48.9173 4.942 48.9653 4.672 48.9653 4.324C48.9653 3.952 48.9233 3.67 48.8393 3.478C48.7673 3.286 48.6173 3.154 48.3893 3.082C48.1733 3.01 47.8433 2.974 47.3993 2.974H45.4193V5.656ZM54.3639 13V0.616H60.5019C61.3059 0.616 61.9539 0.705999 62.4459 0.885999C62.9499 1.054 63.3279 1.312 63.5799 1.66C63.8439 1.996 64.0179 2.416 64.1019 2.92C64.1979 3.412 64.2459 3.976 64.2459 4.612C64.2459 5.08 64.2099 5.554 64.1379 6.034C64.0659 6.502 63.9099 6.934 63.6699 7.33C63.4419 7.714 63.0879 8.008 62.6079 8.212L64.4799 13H61.2219L59.4759 8.05L60.2679 8.482C60.1599 8.542 60.0459 8.578 59.9259 8.59C59.8179 8.602 59.6799 8.608 59.5119 8.608H57.4959V13H54.3639ZM57.4959 6.286H59.2959C59.7039 6.286 60.0279 6.268 60.2679 6.232C60.5199 6.184 60.7059 6.1 60.8259 5.98C60.9459 5.86 61.0239 5.692 61.0599 5.476C61.0959 5.26 61.1139 4.984 61.1139 4.648C61.1139 4.3 61.0959 4.018 61.0599 3.802C61.0359 3.586 60.9639 3.424 60.8439 3.316C60.7359 3.196 60.5559 3.112 60.3039 3.064C60.0639 3.016 59.7279 2.992 59.2959 2.992H57.4959V6.286ZM66.4577 13V0.616H69.5897V13H66.4577ZM79.8386 15.07L78.3446 12.856L81.0986 12.064L83.1686 14.98V15.07H79.8386ZM77.2106 13.144C76.1666 13.144 75.3086 13.084 74.6366 12.964C73.9766 12.832 73.4606 12.628 73.0886 12.352C72.7166 12.064 72.4406 11.68 72.2606 11.2C72.0926 10.708 71.9846 10.102 71.9366 9.382C71.9006 8.662 71.8826 7.804 71.8826 6.808C71.8826 5.812 71.9006 4.954 71.9366 4.234C71.9846 3.514 72.0926 2.914 72.2606 2.434C72.4406 1.942 72.7166 1.558 73.0886 1.282C73.4606 0.994 73.9766 0.789999 74.6366 0.669999C75.3086 0.537999 76.1666 0.471999 77.2106 0.471999C78.2426 0.471999 79.0886 0.537999 79.7486 0.669999C80.4206 0.789999 80.9486 0.994 81.3326 1.282C81.7166 1.558 81.9926 1.942 82.1606 2.434C82.3286 2.914 82.4366 3.514 82.4846 4.234C82.5326 4.954 82.5566 5.812 82.5566 6.808C82.5566 7.804 82.5326 8.662 82.4846 9.382C82.4366 10.102 82.3286 10.708 82.1606 11.2C81.9926 11.68 81.7166 12.064 81.3326 12.352C80.9486 12.628 80.4206 12.832 79.7486 12.964C79.0886 13.084 78.2426 13.144 77.2106 13.144ZM77.2106 10.732C77.6426 10.732 77.9906 10.72 78.2546 10.696C78.5306 10.66 78.7466 10.582 78.9026 10.462C79.0586 10.33 79.1726 10.126 79.2446 9.85C79.3166 9.574 79.3586 9.19 79.3706 8.698C79.3946 8.206 79.4066 7.576 79.4066 6.808C79.4066 6.04 79.3946 5.41 79.3706 4.918C79.3586 4.426 79.3166 4.042 79.2446 3.766C79.1726 3.49 79.0586 3.292 78.9026 3.172C78.7466 3.04 78.5306 2.962 78.2546 2.938C77.9906 2.902 77.6426 2.884 77.2106 2.884C76.7906 2.884 76.4426 2.902 76.1666 2.938C75.8906 2.962 75.6746 3.04 75.5186 3.172C75.3626 3.292 75.2486 3.49 75.1766 3.766C75.1046 4.042 75.0566 4.426 75.0326 4.918C75.0206 5.41 75.0146 6.04 75.0146 6.808C75.0146 7.576 75.0206 8.206 75.0326 8.698C75.0566 9.19 75.1046 9.574 75.1766 9.85C75.2486 10.126 75.3626 10.33 75.5186 10.462C75.6746 10.582 75.8906 10.66 76.1666 10.696C76.4426 10.72 76.7906 10.732 77.2106 10.732Z" fill="#0072BC"/>
</symbol>




<symbol  id="filtericon"  viewBox="0 0 18 11" fill="none" xmlns="http://www.w3.org/2000/svg">
<path d="M6 9.75C6 9.55109 6.07902 9.36032 6.21967 9.21967C6.36032 9.07902 6.55109 9 6.75 9H11.25C11.4489 9 11.6397 9.07902 11.7803 9.21967C11.921 9.36032 12 9.55109 12 9.75C12 9.94891 11.921 10.1397 11.7803 10.2803C11.6397 10.421 11.4489 10.5 11.25 10.5H6.75C6.55109 10.5 6.36032 10.421 6.21967 10.2803C6.07902 10.1397 6 9.94891 6 9.75ZM3 5.25C3 5.05109 3.07902 4.86032 3.21967 4.71967C3.36032 4.57902 3.55109 4.5 3.75 4.5H14.25C14.4489 4.5 14.6397 4.57902 14.7803 4.71967C14.921 4.86032 15 5.05109 15 5.25C15 5.44891 14.921 5.63968 14.7803 5.78033C14.6397 5.92098 14.4489 6 14.25 6H3.75C3.55109 6 3.36032 5.92098 3.21967 5.78033C3.07902 5.63968 3 5.44891 3 5.25ZM0 0.75C0 0.551088 0.0790178 0.360322 0.21967 0.21967C0.360322 0.0790178 0.551088 0 0.75 0H17.25C17.4489 0 17.6397 0.0790178 17.7803 0.21967C17.921 0.360322 18 0.551088 18 0.75C18 0.948912 17.921 1.13968 17.7803 1.28033C17.6397 1.42098 17.4489 1.5 17.25 1.5H0.75C0.551088 1.5 0.360322 1.42098 0.21967 1.28033C0.0790178 1.13968 0 0.948912 0 0.75Z" />
</symbol>



</svg>
